name C:\Users\Nicos\Documents\OpenSimProjects\SprintingProject\Study1\PredictiveResults\IC_pred_Sprinting_optimum_28-October-2023__10-08-04___HTD_Minus_4_p02_maxVel_01.mot
datacolumns 38
datarows 8
range 0.15310400 0.16087232
endheader
                time	/jointset/ground_pelvis/pelvis_tilt/value	/jointset/ground_pelvis/pelvis_list/value	/jointset/ground_pelvis/pelvis_rotation/value	/jointset/ground_pelvis/pelvis_tx/value	/jointset/ground_pelvis/pelvis_ty/value	/jointset/ground_pelvis/pelvis_tz/value	/jointset/hip_r/hip_flexion_r/value	/jointset/hip_r/hip_adduction_r/value	/jointset/hip_r/hip_rotation_r/value	/jointset/knee_r/knee_angle_r/value	/jointset/ankle_r/ankle_angle_r/value	/jointset/subtalar_r/subtalar_angle_r/value	/jointset/mtp_r/mtp_angle_r/value	/jointset/hip_l/hip_flexion_l/value	/jointset/hip_l/hip_adduction_l/value	/jointset/hip_l/hip_rotation_l/value	/jointset/knee_l/knee_angle_l/value	/jointset/ankle_l/ankle_angle_l/value	/jointset/subtalar_l/subtalar_angle_l/value	/jointset/mtp_l/mtp_angle_l/value	/jointset/back/lumbar_extension/value	/jointset/back/lumbar_bending/value	/jointset/back/lumbar_rotation/value	/jointset/acromial_r/arm_flex_r/value	/jointset/acromial_r/arm_add_r/value	/jointset/acromial_r/arm_rot_r/value	/jointset/elbow_r/elbow_flex_r/value	/jointset/radioulnar_r/pro_sup_r/value	/jointset/radius_hand_r/wrist_flex_r/value	/jointset/radius_hand_r/wrist_dev_r/value	/jointset/acromial_l/arm_flex_l/value	/jointset/acromial_l/arm_add_l/value	/jointset/acromial_l/arm_rot_l/value	/jointset/elbow_l/elbow_flex_l/value	/jointset/radioulnar_l/pro_sup_l/value	/jointset/radius_hand_l/wrist_flex_l/value	/jointset/radius_hand_l/wrist_dev_l/value	
          0.15310400	         -9.77342760	          5.56660897	         -9.54129745	          1.11126959	          0.96863553	          0.30825276	          6.05105834	        -10.98513243	          7.51732143	        -62.92623424	        -28.72215722	        -15.57510556	         -9.81365747	         79.44932302	         -9.89018012	          4.27117640	        -95.51605133	         13.40166404	        -25.78882465	         -1.02716713	        -14.01157692	         -6.94730108	          6.89561040	         79.89854853	        -17.83206329	         -0.00177088	        156.37565945	         57.50975039	         -8.30989398	          7.84287916	        -74.88721542	          0.04336073	         -0.00301595	         93.92308883	         66.90327280	        -14.18424020	          6.66965832	
          0.15370624	         -9.79764348	          5.54528934	         -9.45128452	          1.11789368	          0.96891167	          0.30836360	          6.06434426	        -10.97594209	          7.47802376	        -63.28073538	        -28.81134220	        -15.43412435	         -9.74489635	         79.41491829	         -9.89144248	          4.21528870	        -94.81210978	         13.32900592	        -25.70133582	         -0.79110807	        -14.04477778	         -6.97257376	          6.85301056	         79.58472090	        -17.83500275	         -0.00302761	        156.24450695	         57.44542288	         -8.21598718	          7.82433504	        -74.83974804	         -0.03967348	         -0.00207034	         93.49519746	         66.96332131	        -14.28999836	          6.67968763	
          0.15560909	         -9.86176202	          5.47706598	         -9.16764627	          1.13879858	          0.96983008	          0.30872170	          6.10743615	        -10.94284022	          7.35735760	        -64.39449575	        -29.06234930	        -14.96748860	         -9.53343039	         79.24824308	         -9.89394712	          4.02304349	        -92.55172478	         13.07779210	        -25.41994271	         -0.04199314	        -14.17043386	         -7.05478790	          6.71867066	         78.51141228	        -17.88174856	         -0.00440288	        155.73403292	         57.23552749	         -7.91926267	          7.76568239	        -74.63944504	         -0.32988762	         -0.00001012	         92.14811738	         67.16359317	        -14.62416552	          6.70576361	
          0.15698816	         -9.89443834	          5.42695294	         -8.96429077	          1.15392810	          0.97054022	          0.30898968	          6.13783427	        -10.91561032	          7.27264178	        -65.19668257	        -29.19995836	        -14.63623389	         -9.38914129	         79.07077880	         -9.89483818	          3.86860320	        -90.88166866	         12.87044570	        -25.22527702	          0.49433411	        -14.28280926	         -7.11707393	          6.62329865	         77.65750057	        -17.95119257	         -0.00234597	        155.26780526	         57.07556929	         -7.70423032	          7.72322844	        -74.44952702	         -0.56581177	         -0.00381312	         91.18371001	         67.31871265	        -14.86633603	          6.71948665	
          0.15698816	         -9.89443834	          5.42695294	         -8.96429077	          1.15392810	          0.97054022	          0.30898968	          6.13783427	        -10.91561032	          7.27264178	        -65.19668257	        -29.19995836	        -14.63623389	         -9.38914129	         79.07077880	         -9.89483818	          3.86860320	        -90.88166866	         12.87044570	        -25.22527702	          0.49433411	        -14.28280926	         -7.11707393	          6.62329865	         77.65750057	        -17.95119257	         -0.00234597	        155.26780526	         57.07556929	         -7.70423032	          7.72322844	        -74.44952702	         -0.56581177	         -0.00381312	         91.18371001	         67.31871265	        -14.86633603	          6.71948665	
          0.15759040	         -9.90453154	          5.40491490	         -8.87645376	          1.16053015	          0.97086234	          0.30910917	          6.15038848	        -10.90300754	          7.23624924	        -65.54591080	        -29.24505234	        -14.49987362	         -9.32931236	         78.97793006	         -9.89511061	          3.79713915	        -90.14467338	         12.77203572	        -25.14631313	          0.72448167	        -14.33793043	         -7.14508178	          6.58262370	         77.26507365	        -17.99089473	         -0.00003429	        155.03769037	         57.00342483	         -7.61033482	          7.70476842	        -74.35558919	         -0.67535052	         -0.00804685	         90.76757300	         67.38908627	        -14.97209451	          6.72419095	
          0.15949325	         -9.91563611	          5.33511462	         -8.60458800	          1.18137299	          0.97193150	          0.30949734	          6.18304508	        -10.86180343	          7.12323903	        -66.64545714	        -29.31990657	        -14.12933288	         -9.15410527	         78.61950632	         -9.89567279	          3.55459341	        -87.78893912	         12.42355335	        -24.93885496	          1.42714611	        -14.54006211	         -7.23811181	          6.46006481	         75.94800794	        -18.15379601	         -0.00246638	        154.19828974	         56.76419979	         -7.31357799	          7.64585957	        -74.01812409	         -1.04652965	         -0.03681518	         89.48094977	         67.62248344	        -15.30626273	          6.73425583	
          0.16087232	         -9.90119665	          5.28389304	         -8.41450129	          1.19646548	          0.97275708	          0.30978962	          6.19748696	        -10.83055785	          7.04373258	        -67.43866762	        -29.31661992	        -13.93024243	         -9.04103807	         78.29626422	         -9.89643313	          3.36354749	        -86.06004734	         12.13214265	        -24.84024374	          1.90974692	        -14.71555306	         -7.30969198	          6.37880712	         74.92349258	        -18.30742294	         -0.01193773	        153.48159430	         56.58084585	         -7.09861173	          7.60395141	        -73.73798684	         -1.33826529	         -0.07718501	         88.58217897	         67.80232018	        -15.54843262	          6.73746018	
